PathFileType	4	(X/Y/Z)	C:/Users/DISI/Documents/SIV_Franzin_Parola/Rigid-Body Object Trackig/Logs/Alza_001.trc
DataRate	CameraRate	NumFrames	NumMarkers	Units	OrigDataRate	OrigDataStartFrame	OrigNumFrames
360	360	62	25	m	360	9199	10514
Frame#	Time	Marker1			Marker2			Marker3			Marker4			Marker5			Marker6			Unlabeled 1323			Unlabeled 1324			Unlabeled 1325			Unlabeled 1326			Unlabeled 1328			Unlabeled 1329			Unlabeled 1330			Unlabeled 1331			Unlabeled 1332			Unlabeled 1333			Unlabeled 1334			Unlabeled 1335			Unlabeled 1336			Unlabeled 1337			Unlabeled 1338			Unlabeled 1340			Unlabeled 1341			Unlabeled 1342			Unlabeled 1344			
		X1	Y1	Z1	X2	Y2	Z2	X3	Y3	Z3	X4	Y4	Z4	X5	Y5	Z5	X6	Y6	Z6	X7	Y7	Z7	X8	Y8	Z8	X9	Y9	Z9	X10	Y10	Z10	X11	Y11	Z11	X12	Y12	Z12	X13	Y13	Z13	X14	Y14	Z14	X15	Y15	Z15	X16	Y16	Z16	X17	Y17	Z17	X18	Y18	Z18	X19	Y19	Z19	X20	Y20	Z20	X21	Y21	Z21	X22	Y22	Z22	X23	Y23	Z23	X24	Y24	Z24	X25	Y25	Z25
9199	25.5528	0.14431	0.140165	0.0872301	0.0772422	0.143669	0.0838785	0.164065	0.13775	0.209051	0.0740905	0.144276	0.20987	0.162575	0.13987	0.135115	0.176801	0.138581	0.166983																																																									
9200	25.5556																																																																											
9201	25.5583																																																																											
9202	25.5611	0.144325	0.140164	0.0872153	0.077233	0.143674	0.083888	0.164051	0.13775	0.209043	0.0741154	0.144261	0.209875	0.162563	0.139886	0.135106	0.176799	0.138581	0.166986																																																									
9203	25.5639																																																																											
9204	25.5667																																																																											
9205	25.5694	0.144309	0.140164	0.0872214	0.0772434	0.143667	0.0838884	0.164057	0.137765	0.209045	0.0741187	0.144252	0.209877	0.16168	0.140336	0.134756	0.176774	0.138594	0.166986																																																									
9206	25.5722	0.144315	0.140169	0.0872325	0.0772357	0.143677	0.0838722	0.164068	0.137755	0.209062	0.0741091	0.144258	0.209851	0.161789	0.140212	0.134711	0.176792	0.138589	0.166977																																																									
9207	25.575																																																																											
9208	25.5778	0.144331	0.140152	0.087221	0.0772347	0.143669	0.0838695	0.164059	0.137755	0.209042	0.0741233	0.144265	0.209855	0.161669	0.140334	0.134749	0.176796	0.138587	0.166969																																																									
9209	25.5806																																																																											
9210	25.5833																																																																											
9211	25.5861	0.144314	0.140172	0.087234	0.0772339	0.143671	0.0838724	0.164057	0.13776	0.209042	0.0740211	0.14445	0.209922	0.161679	0.140337	0.134767	0.176787	0.138589	0.166989																																																									
9212	25.5889																																																																											
9213	25.5917																																																																											
9214	25.5944	0.144322	0.14016	0.0872225	0.0772391	0.143686	0.0838852	0.164044	0.137747	0.209046	0.0741103	0.144264	0.209863	0.161794	0.140227	0.134723	0.176776	0.138588	0.166986																																																									
9215	25.5972																																																																											
9216	25.6																																																																											
9217	25.6028	0.144312	0.140171	0.0872337	0.0772339	0.143667	0.083885	0.164067	0.137751	0.209044	0.074103	0.144266	0.209874	0.161664	0.140346	0.134767	0.17679	0.138583	0.16698																																																									
9218	25.6056																																																																											
9219	25.6083																																																																											
9220	25.6111	0.144315	0.140182	0.0872307	0.077241	0.143671	0.0838775	0.164068	0.13775	0.209066	0.0740272	0.14444	0.209936	0.16165	0.140353	0.134758	0.176771	0.13859	0.166988																																																									
9221	25.6139																																																																											
9222	25.6167																																																																											
9223	25.6194	0.144299	0.140174	0.0872164	0.0772436	0.143676	0.0838941	0.164064	0.137755	0.209052	0.0741024	0.144257	0.209869	0.161653	0.140367	0.134757	0.176772	0.138581	0.166988																																																									
9224	25.6222																																																																											
9225	25.625																																																																											
9226	25.6278	0.144317	0.140177	0.087237	0.0772514	0.143683	0.0838853	0.164051	0.137771	0.209049	0.0741006	0.144253	0.209873	0.1618	0.140242	0.134709	0.176783	0.138599	0.166983																																																									
9227	25.6306																																																																											
9228	25.6333																																																																											
9229	25.6361	0.144303	0.140166	0.0872216	0.077239	0.143672	0.0838717	0.164053	0.137745	0.209043	0.0741045	0.144259	0.209862	0.161678	0.140359	0.134758	0.176789	0.138592	0.166973																																																									
9230	25.6389																																																																											
9231	25.6417																																																																											
9232	25.6444	0.144314	0.140151	0.087218	0.0772398	0.143681	0.0838646	0.164063	0.13774	0.20902	0.0741058	0.144275	0.209864	0.16168	0.140331	0.134757	0.1768	0.138596	0.166975																																																									
9233	25.6472																																																																											
9234	25.65																																																																											
9235	25.6528	0.144302	0.140164	0.0872187	0.0772353	0.143677	0.0838766	0.164064	0.137775	0.209061	0.0741096	0.144262	0.209856	0.161701	0.140329	0.134764	0.176813	0.138582	0.16699																																																									
9236	25.6556																																																																											
9237	25.6583																																																																											
9238	25.6611	0.144328	0.140157	0.0872159	0.0772445	0.143665	0.0838761	0.164065	0.137771	0.209045	0.0741228	0.144266	0.209866	0.162576	0.139863	0.135129	0.176823	0.138562	0.16698																																																									
9239	25.6639																																																																											
9240	25.6667																																																																											
9241	25.6694	0.144334	0.140149	0.0872239	0.0772535	0.143664	0.0838888	0.164061	0.137761	0.20905	0.0741121	0.144265	0.20986	0.162585	0.13986	0.135138	0.176836	0.138543	0.166974																																																									
9242	25.6722	0.144329	0.140153	0.0872177	0.077237	0.143671	0.0838961	0.164062	0.137751	0.209035	0.0740155	0.144437	0.20991	0.161699	0.140319	0.134759	0.176829	0.138553	0.166986																																																									
9243	25.675																																																																											
9244	25.6778	0.14433	0.140151	0.0872182	0.0772338	0.143668	0.0838779	0.164066	0.137755	0.209046	0.0741096	0.144254	0.209865	0.161739	0.140308	0.134753	0.176804	0.138549	0.166983																																																									
9245	25.6806																																																																											
9246	25.6833																																																																											
9247	25.6861	0.144312	0.140143	0.0872263	0.0772488	0.143672	0.083869	0.164072	0.137736	0.209044	0.0740994	0.144247	0.209874	0.162562	0.139887	0.135116	0.176821	0.138571	0.166995																																																									
9248	25.6889																																																																											
9249	25.6917																																																																											
9250	25.6944	0.144306	0.140167	0.0872394	0.0772408	0.143664	0.0838852	0.16406	0.137751	0.209044	0.0740974	0.144255	0.209863	0.162557	0.139889	0.135134	0.176776	0.138583	0.166995																																																									
9251	25.6972																																																																											
9252	25.7																																																																											
9253	25.7028	0.144309	0.140166	0.0872248	0.0772423	0.143655	0.0838757	0.164071	0.137762	0.209021	0.0741168	0.144265	0.209872	0.161671	0.140355	0.134769	0.176772	0.138593	0.16698																																																									
9254	25.7056																																																																											
9255	25.7083	0.144293	0.140157	0.0872284	0.0772382	0.143678	0.0838866	0.164063	0.137744	0.20904	0.0740304	0.14444	0.20994	0.161659	0.14035	0.134772	0.176778	0.138595	0.166988																																																									
9256	25.7111																																																																											
9257	25.7139																																																																											
9258	25.7167	0.144308	0.140168	0.087218	0.0772553	0.143666	0.0838794	0.164061	0.137767	0.209048	0.0741085	0.144264	0.209889	0.161655	0.140348	0.13476	0.176772	0.138594	0.166988																																																									
9259	25.7194																																																																											
9260	25.7222																																																																											
